<!-- icon666.com - MILLIONS vector ICONS FREE -->
<svg version="1.1" id="Layer_1" xmlns="http://www.w3.org/2000/svg" xmlns:xlink="http://www.w3.org/1999/xlink" x="0px" y="0px" viewBox="0 0 512 512" style="enable-background:new 0 0 512 512;" xml:space="preserve">
  <g>
    <g>
      <path fill="#f7654a" stroke="#f7654a" stroke-width="20" d="M146.508,308.139h218.984c77.943,0,141.355-63.411,141.355-141.355S443.435,25.43,365.492,25.43h-170.9V8.69 c0-4.799-3.891-8.69-8.69-8.69h-46.145c-4.5,0-8.202,3.421-8.645,7.805h-16.923c-4.799,0-8.69,3.891-8.69,8.69v8.935H57.293 c-4.799,0-8.69,3.891-8.69,8.69c0,4.799,3.891,8.69,8.69,8.69h48.205v69.519H57.293c-4.799,0-8.69,3.891-8.69,8.69 c0,4.799,3.891,8.69,8.69,8.69h48.205v9.065c0,4.799,3.891,8.69,8.69,8.69h16.898c0.198,4.623,3.998,8.314,8.671,8.314h46.145 c4.799,0,8.69-3.891,8.69-8.69v-17.38h170.9c20.444,0,37.077,16.632,37.077,37.077s-16.632,37.077-37.077,37.077H146.508 c-77.943,0-141.355,63.411-141.355,141.355S68.565,486.57,146.508,486.57h170.9v16.74c0,4.799,3.891,8.69,8.69,8.69h46.144 c4.5,0,8.202-3.421,8.645-7.805h16.923c4.799,0,8.69-3.891,8.69-8.69v-8.935h48.206c4.799,0,8.69-3.891,8.69-8.69 c0-4.799-3.891-8.69-8.69-8.69H406.5v-69.519h48.206c4.799,0,8.69-3.891,8.69-8.69c0-4.799-3.891-8.69-8.69-8.69H406.5v-9.065 c0-4.799-3.891-8.69-8.69-8.69h-16.898c-0.198-4.623-3.998-8.314-8.671-8.314h-46.144c-4.799,0-8.69,3.891-8.69,8.69v17.38 h-170.9c-20.444,0-37.077-16.632-37.077-37.077S126.064,308.139,146.508,308.139z M131.068,130.083h-8.189c0,0,0.005-95.929,0.005-95.964 c0-0.034-0.005-8.935-0.005-8.935h8.189V130.083z M177.212,138.398h-28.766V17.38h28.766V138.398z M380.932,381.917h8.189v104.9 h-8.189V381.917z M334.788,373.602h28.764V494.62h-28.764V373.602z M146.508,399.672h170.9v69.519h-170.9 c-68.36,0-123.975-55.615-123.975-123.975s55.615-123.975,123.975-123.975h218.984c30.027,0,54.456-24.429,54.456-54.456 s-24.429-54.456-54.456-54.456h-170.9V42.81h170.9c68.36,0,123.975,55.615,123.975,123.975s-55.615,123.975-123.975,123.975 H146.508c-30.027,0-54.456,24.429-54.456,54.456S116.481,399.672,146.508,399.672z"></path>
    </g>
  </g>
</svg>
